<?xml version="1.0" encoding="utf-8"?>
<!-- Generator: Adobe Illustrator 16.0.0, SVG Export Plug-In . SVG Version: 6.00 Build 0)  -->
<!DOCTYPE svg PUBLIC "-//W3C//DTD SVG 1.1//EN" "http://www.w3.org/Graphics/SVG/1.1/DTD/svg11.dtd">
<svg version="1.1" xmlns="http://www.w3.org/2000/svg" xmlns:xlink="http://www.w3.org/1999/xlink" x="0px" y="0px"
	 width="106px" height="45px" viewBox="0 0 106 45" enable-background="new 0 0 106 45"
	 xml:space="preserve">
<g id="Layer_1">
</g>
<g id="Hover">
</g>
<g id="specctr">
	<g id="Dimensions">
	</g>
	<g id="Spacing">
	</g>
	<g id="Text_Properties">
	</g>
	<g id="Object_Properties">
	</g>
</g>
<g id="Layer_8">
	<g>
		<g>
			<g>
				<path fill="#FFFFFF" d="M17.842,37.12c-0.086,0.27-0.287,0.438-0.658,0.438H15.09c-0.344,0-0.516-0.096-0.602-0.438
					l-1.982-7.393c-0.203-0.754-0.287-1.621-0.402-2.49c-0.088,0.869-0.201,1.762-0.398,2.49L9.723,37.12
					c-0.057,0.27-0.285,0.438-0.66,0.438H6.938c-0.344,0-0.514-0.096-0.6-0.438L3.439,26.487c-0.084-0.365,0.145-0.582,0.461-0.582
					h1.346c0.373,0,0.574,0.121,0.66,0.484l1.838,7.59c0.199,0.871,0.258,1.766,0.344,2.586c0.145-0.795,0.26-1.74,0.488-2.561
					l2.039-7.639c0.086-0.312,0.342-0.461,0.688-0.461h1.662c0.342,0,0.633,0.17,0.719,0.484l2.064,7.615
					c0.23,0.82,0.344,1.74,0.459,2.561c0.113-0.795,0.23-1.74,0.4-2.561l1.693-7.639c0.057-0.312,0.344-0.461,0.691-0.461h1.26
					c0.314,0,0.547,0.193,0.459,0.557L17.842,37.12z"/>
				<path fill="#FFFFFF" d="M29.066,37.665c-3.328,0-5.51-2.285-5.51-6.01c0-3.699,2.182-5.947,5.51-5.947
					c3.332,0,5.451,2.248,5.451,5.947C34.518,35.38,32.398,37.665,29.066,37.665z M29.01,27.329c-1.979,0-3.07,1.424-3.07,4.326
					c0,2.975,1.092,4.414,3.07,4.414s3.068-1.439,3.068-4.414C32.078,28.753,30.988,27.329,29.01,27.329z"/>
				<path fill="#FFFFFF" d="M45.227,27.548c-0.086,0.336-0.344,0.553-0.832,0.432c-0.402-0.096-1.061-0.264-1.607-0.264
					c-0.832,0-1.949,0.945-1.949,3.047v6.312c0,0.264-0.285,0.482-0.605,0.482h-1.088c-0.316,0-0.604-0.219-0.604-0.482V26.39
					c0-0.291,0.287-0.484,0.604-0.484h0.66c0.287,0,0.514,0.121,0.604,0.363l0.402,1.305c0.801-1.135,1.891-1.865,3.209-1.865
					c0.92,0,1.639,0.363,1.494,0.85L45.227,27.548z"/>
				<path fill="#FFFFFF" d="M71.438,37.456h-0.602c-0.43,0-0.658-0.146-0.748-0.484l-0.229-0.971
					c-0.83,1.188-1.865,1.646-3.355,1.646c-2.955,0-4.508-2.02-4.508-5.934c0-2.393,0.404-3.578,1.377-4.691
					c0.748-0.846,1.984-1.305,3.217-1.305c1.404,0,2.467,0.58,3.213,1.715v-6.574c0-0.291,0.285-0.482,0.604-0.482h1.031
					c0.316,0,0.604,0.191,0.604,0.482v16.113C72.041,37.237,71.754,37.456,71.438,37.456z M67.078,27.313
					c-0.861,0-1.521,0.312-1.922,0.941c-0.404,0.631-0.719,1.666-0.719,3.434c0,3.094,0.807,4.363,2.611,4.363
					c1.865,0,2.811-1.414,2.811-4.314C69.859,28.86,68.826,27.313,67.078,27.313z"/>
				<path fill="#FFFFFF" d="M58.395,37.563h-1.75c-0.287,0-0.518-0.168-0.688-0.412l-4.42-5.609v5.537
					c0,0.268-0.283,0.484-0.6,0.484h-1.035c-0.314,0-0.602-0.217-0.602-0.484V20.931c0-0.291,0.287-0.482,0.602-0.482h1.035
					c0.316,0,0.6,0.191,0.6,0.482v10.393l4.555-5.049c0.143-0.191,0.371-0.363,0.746-0.363h1.547c0.404,0,0.545,0.338,0.316,0.58
					l-4.84,4.857l4.848,5.633C58.914,37.224,58.797,37.563,58.395,37.563z"/>
				<path fill="#FFFFFF" d="M88.934,26.39c-0.121-0.264,0.182-0.479,0.518-0.479h1.348c0.361,0,0.633,0.168,0.756,0.479l2.67,7.043
					c0.123,0.334,0.244,0.832,0.303,1.217c0.092-0.359,0.273-1.051,0.484-1.646l2.145-6.639c0.092-0.311,0.365-0.453,0.729-0.453
					h1.303c0.334,0,0.605,0.215,0.516,0.479l-4.451,12.785c-0.455,1.312-1.334,2.34-2.848,2.912l-0.635,0.236
					c-0.27,0.096-0.635,0.023-0.787-0.211l-0.422-0.67c-0.123-0.191,0.027-0.572,0.303-0.67l0.453-0.166
					c1.133-0.412,1.963-1.65,2.324-3.227L88.934,26.39z"/>
				<linearGradient id="SVGID_2_" gradientUnits="userSpaceOnUse" x1="54.9512" y1="-3.6748" x2="54.9512" y2="40.3252">
					<stop  offset="0.1406" style="stop-color:#FFCD56"/>
					<stop  offset="1" style="stop-color:#E29900"/>
				</linearGradient>
				<path fill="url(#SVGID_2_)" d="M31.988,20.876C35.791,11.956,44.639,5.7,54.949,5.7c10.312,0,19.162,6.256,22.963,15.178v-0.002
					c0.217,0.605,0.799,1.037,1.479,1.037c0.867,0,1.57-0.703,1.57-1.57c0-0.211-0.031-0.41-0.109-0.594v-0.002
					C76.564,9.687,66.576,2.636,54.949,2.636S33.344,9.685,29.051,19.739c-0.078,0.184-0.109,0.393-0.109,0.604
					c0,0.867,0.701,1.57,1.568,1.57C31.191,21.913,31.752,21.487,31.988,20.876z"/>
				<g>
					<g>
						<path fill="#FFFFFF" d="M81.252,25.714c-3.332,0-5.283,2.254-5.283,5.955c0,3.734,2,5.965,5.113,5.965h0.004
							c1.34,0,2.203-0.461,3.037-1.65l0.225,1c0.086,0.34,0.318,0.484,0.746,0.484h0.605c0.316,0,0.604-0.217,0.604-0.484
							l0.006-5.344C86.309,27.935,84.588,25.714,81.252,25.714z M81.197,36.03c-1.984,0-2.84-1.379-2.84-4.361
							c0-2.904,0.855-4.33,2.84-4.33c1.982,0,2.914,1.426,2.914,4.33C84.111,34.651,83.18,36.03,81.197,36.03z"/>
					</g>
				</g>
				<g>
					<path fill="#FFFFFF" d="M101.24,34.468c0.191,0.082,0.363,0.199,0.512,0.35c0.145,0.148,0.256,0.316,0.332,0.5
						c0.074,0.189,0.113,0.387,0.113,0.6c0,0.215-0.039,0.412-0.121,0.602c-0.076,0.193-0.189,0.357-0.34,0.504
						c-0.152,0.146-0.322,0.26-0.512,0.342c-0.188,0.076-0.389,0.115-0.596,0.115c-0.205,0-0.406-0.043-0.6-0.121
						c-0.188-0.08-0.361-0.203-0.51-0.354c-0.148-0.146-0.258-0.314-0.332-0.498c-0.076-0.189-0.119-0.385-0.119-0.59
						c0-0.141,0.025-0.281,0.057-0.418c0.041-0.133,0.096-0.27,0.174-0.398c0.143-0.234,0.326-0.42,0.559-0.555
						c0.236-0.133,0.49-0.197,0.771-0.197C100.846,34.349,101.047,34.39,101.24,34.468z M100.137,34.7
						c-0.154,0.061-0.293,0.156-0.412,0.277c-0.127,0.123-0.225,0.271-0.293,0.436c-0.068,0.158-0.104,0.326-0.104,0.5
						c0,0.17,0.031,0.34,0.094,0.496c0.064,0.152,0.16,0.295,0.281,0.416c0.125,0.125,0.268,0.223,0.426,0.293
						c0.162,0.07,0.326,0.105,0.5,0.105c0.17,0,0.334-0.035,0.49-0.102c0.164-0.064,0.307-0.16,0.436-0.285
						c0.121-0.115,0.217-0.252,0.287-0.412c0.061-0.154,0.096-0.32,0.096-0.486c0-0.188-0.029-0.359-0.094-0.52
						c-0.059-0.152-0.154-0.297-0.275-0.422c-0.125-0.127-0.266-0.227-0.424-0.293c-0.16-0.062-0.33-0.098-0.51-0.098
						S100.291,34.638,100.137,34.7z M100.664,35.017c0.244,0,0.432,0.043,0.559,0.125c0.119,0.084,0.182,0.205,0.182,0.373
						c0,0.119-0.031,0.211-0.1,0.293c-0.068,0.084-0.16,0.137-0.275,0.168l0.385,0.775h-0.471l-0.33-0.709h-0.209v0.709h-0.422
						v-1.734H100.664z M100.404,35.786h0.209c0.123,0,0.213-0.023,0.27-0.061s0.086-0.098,0.086-0.186
						c0-0.084-0.029-0.15-0.088-0.193c-0.066-0.043-0.16-0.062-0.289-0.062h-0.188V35.786z"/>
				</g>
			</g>
		</g>
	</g>
</g>
<g id="Layer_9">
</g>
</svg>
